<svg width="240" height="471" viewBox="0 0 240 471" fill="none" xmlns="http://www.w3.org/2000/svg">
<path d="M90.99 3.69733C95.66 2.59733 102.19 1.33732 105.49 0.907317C108.79 0.487317 114.19 0.0773232 117.49 0.00732319C120.79 -0.0626768 127.54 0.377324 132.49 0.977324C137.44 1.58732 145.54 3.09731 150.49 4.33731C155.44 5.5773 164.22 8.86734 169.99 11.6373C175.77 14.4173 183.64 18.9073 187.49 21.6273C191.34 24.3473 197.15 29.0073 200.4 31.9773C203.65 34.9473 209.28 41.2073 212.91 45.8773C216.54 50.5573 221.81 58.8773 224.64 64.3773C227.46 69.8773 230.96 77.7573 232.43 81.8773C233.89 86.0073 236.04 93.8773 237.2 99.3773C238.8 106.937 239.33 113.167 239.39 124.877C239.44 133.897 238.91 143.517 238.12 147.877C237.38 152.007 235.42 159.657 233.77 164.877C232.12 170.107 228.75 178.427 226.28 183.377C223.81 188.327 219.87 195.077 217.52 198.377C215.16 201.677 210.02 208.657 206.1 213.877C202.17 219.107 197.19 226.757 195.04 230.877C192.88 235.007 189.93 241.527 188.47 245.377C187.02 249.227 184.97 255.977 183.93 260.377C182.88 264.777 181.59 275.127 181.05 283.377C180.24 295.757 179.67 299.157 175.49 307.377H141.49L140.99 294.877L146.24 294.907C151.34 294.937 151.62 294.797 155.99 289.737C158.47 286.867 161.27 283.367 162.23 281.947C163.19 280.537 163.99 277.797 164 275.877C164.02 273.957 164.71 268.547 165.54 263.877C166.37 259.207 167.69 252.907 168.47 249.877C169.25 246.857 171.52 240.547 173.53 235.877C175.53 231.207 179.11 224.457 181.48 220.877C183.85 217.297 189.93 208.527 194.99 201.377C200.06 194.227 206.12 184.547 208.47 179.877C210.83 175.207 213.89 167.777 215.28 163.377C216.67 158.977 218.53 151.547 219.41 146.877C220.29 142.207 221.01 133.657 221.01 127.877C221.01 121.827 220.17 112.717 219.03 106.377C217.94 100.327 216.1 92.4573 214.93 88.8773C213.76 85.3073 211.07 78.7773 208.94 74.3773C206.82 69.9773 202.87 63.4573 200.17 59.8773C197.48 56.3073 191.72 49.9873 187.38 45.8573C183.04 41.7173 176.11 36.2273 171.99 33.6473C167.87 31.0673 161.57 27.7673 157.99 26.2973C154.41 24.8373 147.22 22.5773 141.99 21.2773C134.93 19.5073 129.67 18.8973 121.49 18.8773C115.44 18.8673 106.44 19.5573 101.49 20.4173C96.54 21.2773 89.57 23.0473 85.99 24.3473C82.41 25.6573 76.34 27.9173 72.49 29.3773C68.64 30.8473 62.38 34.3673 58.57 37.2073C54.77 40.0473 48.96 45.3073 45.68 48.8773C42.39 52.4573 37.48 58.7573 34.76 62.8773C32.04 67.0073 28.9 72.4073 27.76 74.8773C26.63 77.3573 24.84 81.4073 23.78 83.8773C22.71 86.3573 20.98 91.9773 19.92 96.3773C18.45 102.517 18 108.097 17.98 120.377C17.97 132.607 18.45 138.847 20.04 146.877C21.18 152.657 23.47 161.427 25.12 166.377C26.77 171.327 29.86 178.527 31.99 182.377C34.11 186.227 40.72 196.357 46.67 204.887C52.62 213.417 59.38 224.217 61.69 228.887C64 233.557 67.01 240.757 68.38 244.877C69.75 249.007 71.53 255.757 72.34 259.877C73.15 264.007 74.08 269.967 74.4 273.127C74.75 276.507 75.88 280.217 77.15 282.127C78.34 283.917 81.15 287.047 83.4 289.087C86.74 292.107 88.27 292.797 95.99 292.877V307.877L64.61 307.377L62.25 302.877C60.4 299.347 59.69 295.777 58.94 286.377C58.42 279.777 57.5 271.227 56.88 267.377C56.27 263.527 54.42 256.107 52.77 250.877C51.13 245.657 47.8 237.547 45.38 232.877C42.96 228.207 38.3 220.777 35.04 216.377C31.77 211.977 26.18 204.107 22.6 198.877C19.03 193.657 14.28 185.437 12.05 180.627C9.81999 175.817 6.84 167.937 5.44 163.127C4.04 158.317 2.24 150.107 1.44 144.877C0.650002 139.657 9.76585e-06 130.877 0.0100098 125.377C0.0100098 119.877 0.709998 110.657 1.56 104.877C2.41 99.1073 4.59999 89.8773 6.42999 84.3773C8.24999 78.8773 11.43 71.0073 13.5 66.8773C15.57 62.7573 19.53 56.0073 22.29 51.8773C25.05 47.7573 31.62 40.0473 36.9 34.7573C42.55 29.0773 50.18 22.7273 55.49 19.2773C60.44 16.0673 68.54 11.6873 73.49 9.56732C78.44 7.43732 86.32 4.79733 90.99 3.69733Z" fill="#A3A4BC"/>
<path d="M85.99 24.3473C89.57 23.0373 96.09 21.3073 100.49 20.5073C104.89 19.7073 113.89 19.0173 120.49 18.9773C129.97 18.9173 134.48 19.3973 141.99 21.2773C147.22 22.5773 154.41 24.8373 157.99 26.2973C161.57 27.7673 167.86 31.0673 171.99 33.6473C176.11 36.2273 183.04 41.7173 187.38 45.8573C191.72 49.9873 197.48 56.3073 200.17 59.8773C202.87 63.4473 206.82 69.9773 208.94 74.3773C211.07 78.7773 213.76 85.3073 214.93 88.8773C216.1 92.4473 217.94 100.327 219.03 106.377C220.17 112.717 221.01 121.827 221.01 127.877C221.01 133.647 220.29 142.207 219.41 146.877C218.53 151.547 216.67 158.977 215.28 163.377C213.89 167.777 210.83 175.207 208.47 179.877C206.12 184.547 200.06 194.227 194.99 201.377C189.93 208.527 183.85 217.297 181.48 220.877C179.11 224.457 175.53 231.207 173.53 235.877C171.52 240.547 169.25 246.857 168.47 249.877C167.69 252.897 166.37 259.207 165.54 263.877C164.71 268.547 164.02 273.957 164 275.877C163.99 277.797 163.19 280.537 162.23 281.947C161.27 283.367 158.47 286.867 155.99 289.737C151.62 294.797 151.34 294.937 140.99 294.877L141.54 283.627C141.84 277.437 142.54 265.177 143.1 256.377C143.66 247.577 144.98 233.397 146.04 224.877C147.09 216.357 148.88 204.207 150.02 197.877C151.16 191.547 153.22 181.877 154.6 176.377C155.97 170.877 158.63 161.207 160.5 154.877C162.37 148.547 164.82 141.577 165.95 139.377C167.08 137.177 168.02 134.707 168.03 133.877C168.05 133.047 167.14 131.137 166.02 129.627C164.4 127.427 163.19 126.877 159.99 126.877C156.77 126.877 155.5 127.457 153.49 129.877C151.43 132.347 150.99 133.947 150.99 138.877C150.99 144.677 150.88 144.927 147.74 146.337C145.95 147.137 142.24 148.207 139.49 148.717C136.74 149.227 133.68 149.357 132.69 149.007C131.52 148.597 131.15 147.857 131.62 146.877C132.02 146.047 132.54 143.357 132.79 140.877C133.03 138.397 132.75 134.797 132.17 132.877C131.58 130.957 129.62 127.997 127.8 126.317C125.87 124.537 122.82 122.957 120.49 122.537C117.52 121.997 115.6 122.267 113 123.597C111.09 124.577 108.49 126.957 107.23 128.877C105.56 131.427 104.94 133.807 104.96 137.627C104.98 140.517 105.66 144.227 107.99 148.877H102.99C100.24 148.877 95.63 147.987 87.49 144.917V138.967C87.49 133.707 87.14 132.657 84.49 129.927C82.27 127.637 80.58 126.827 77.99 126.827C75.7 126.817 73.8 127.547 72.49 128.937C71.1 130.417 70.57 132.187 70.75 134.727C70.89 136.737 71.68 139.387 72.5 140.627C73.32 141.867 75.08 146.587 76.41 151.127C77.74 155.667 79.97 163.877 81.37 169.377C82.77 174.877 84.8 183.877 85.89 189.377C86.98 194.877 88.56 203.877 89.41 209.377C90.26 214.877 91.63 225.677 92.46 233.377C93.29 241.077 94.42 254.577 94.98 263.377C95.54 272.177 95.99 282.417 95.99 292.877L91.74 292.837C88.27 292.797 86.74 292.107 83.4 289.087C81.15 287.047 78.34 283.917 77.15 282.127C75.88 280.217 74.75 276.507 74.4 273.127C74.08 269.967 73.15 264.007 72.34 259.877C71.53 255.757 69.75 249.007 68.38 244.877C67.01 240.757 64 233.557 61.69 228.887C59.38 224.217 52.62 213.417 46.67 204.887C40.72 196.357 34.11 186.227 31.99 182.377C29.86 178.527 26.77 171.327 25.12 166.377C23.47 161.427 21.18 152.647 20.04 146.877C18.45 138.847 17.97 132.607 17.98 120.377C18 108.097 18.45 102.517 19.92 96.3773C20.98 91.9773 22.71 86.3573 23.78 83.8773C24.84 81.3973 26.63 77.3573 27.76 74.8773C28.9 72.3973 32.04 67.0073 34.76 62.8773C37.48 58.7573 42.39 52.4473 45.68 48.8773C48.96 45.3073 54.77 40.0473 58.57 37.2073C62.38 34.3673 68.64 30.8473 72.49 29.3773C76.34 27.9173 82.41 25.6473 85.99 24.3473Z" fill="#B0B1C8"/>
<path d="M107.23 128.877C108.5 126.957 111.1 124.577 113.01 123.597C115.36 122.387 117.63 121.997 119.99 122.397C121.91 122.717 124.62 123.797 125.99 124.797C127.37 125.797 129.39 127.837 130.49 129.317C132.02 131.387 132.49 133.577 132.49 138.697C132.48 142.367 132.13 146.047 131.69 146.877C131.15 147.897 131.48 148.577 132.69 149.007C133.68 149.357 136.74 149.227 139.49 148.717C142.24 148.207 145.95 147.137 147.74 146.337C150.88 144.927 150.99 144.677 150.99 138.877C150.99 133.947 151.43 132.347 153.49 129.877C155.5 127.457 156.77 126.877 159.99 126.877C163.19 126.877 164.4 127.427 166.02 129.627C167.14 131.137 168.05 133.047 168.03 133.877C168.02 134.707 167.08 137.177 165.95 139.377C164.82 141.577 162.37 148.547 160.5 154.877C158.63 161.207 155.97 170.877 154.6 176.377C153.22 181.877 151.16 191.547 150.02 197.877C148.88 204.207 147.07 216.577 146 225.377C144.93 234.177 143.6 247.897 143.05 255.877C142.51 263.847 141.71 278.587 140.49 306.887L129.99 306.877L130 290.127C130.01 280.917 130.46 266.847 131.01 258.877C131.56 250.897 132.7 238.297 133.54 230.877C134.37 223.457 135.72 212.987 136.53 207.627C137.33 202.267 139.35 191.467 141.02 183.627C142.68 175.787 144.7 167.127 145.5 164.377C146.3 161.627 146.85 159.277 146.72 159.157C146.6 159.037 144.01 159.457 140.99 160.087C136.77 160.977 134.21 160.967 129.99 160.037C126.97 159.377 123.37 158.257 121.99 157.547C119.88 156.467 118.87 156.537 115.49 158.007C113.29 158.957 109.24 160.027 106.49 160.367C103.55 160.727 99.33 160.447 96.26 159.677C93.39 158.967 91.02 158.597 91 158.877C90.98 159.147 92.29 164.997 93.93 171.877C95.56 178.747 98.02 191.127 99.4 199.377C100.77 207.627 102.37 217.977 102.94 222.377C103.51 226.777 104.63 237.577 105.43 246.377C106.23 255.177 107.25 272.387 108.49 306.887L95.99 306.877V293.127C95.99 285.567 95.54 272.177 94.98 263.377C94.42 254.577 93.29 241.077 92.46 233.377C91.63 225.677 90.26 214.877 89.41 209.377C88.56 203.877 86.98 194.877 85.89 189.377C84.8 183.877 82.77 174.877 81.37 169.377C79.97 163.877 77.74 155.667 76.41 151.127C75.08 146.587 73.32 141.867 72.5 140.627C71.68 139.387 70.89 136.737 70.75 134.727C70.57 132.187 71.1 130.417 72.49 128.937C73.8 127.547 75.7 126.817 77.99 126.827C80.58 126.827 82.27 127.637 84.49 129.927C87.14 132.657 87.49 133.707 87.49 144.917L92.74 146.897C95.63 147.987 100.24 148.877 107.99 148.877L106.49 145.877C105.66 144.227 104.98 140.517 104.96 137.627C104.94 133.797 105.56 131.427 107.23 128.877Z" fill="#5E5E6E"/>
<path d="M106.49 160.377C109.24 160.047 113.2 158.987 115.28 158.007C118.53 156.497 119.46 156.427 121.78 157.547C123.27 158.257 126.97 159.387 129.99 160.047C134.2 160.967 136.78 160.977 140.99 160.087C144.02 159.457 146.6 159.037 146.72 159.157C146.85 159.277 146.3 161.627 145.5 164.377C144.7 167.127 142.68 175.787 141.02 183.627C139.35 191.467 137.33 202.267 136.53 207.627C135.72 212.987 134.37 223.457 133.54 230.877C132.7 238.297 131.56 250.897 131.01 258.877C130.46 266.857 130.01 279.117 129.99 298.877L108.49 298.887L107.68 281.127C107.24 271.367 106.23 255.957 105.43 246.877C104.63 237.797 103.51 226.777 102.94 222.377C102.37 217.977 100.77 207.627 99.4 199.377C98.02 191.127 95.56 178.757 93.93 171.877C92.29 165.007 90.98 159.147 91 158.877C91.02 158.607 93.39 158.957 96.26 159.677C99.27 160.417 103.62 160.717 106.49 160.377Z" fill="#B0B1C8"/>
<path d="M107.99 307.877V298.877H129.99L129.49 307.377L107.99 307.877Z" fill="#A3A4BC"/>
<path d="M117.74 307.657C155.1 307.807 175.18 307.527 175.54 306.877C175.84 306.327 176.52 305.877 177.04 305.877C177.56 305.877 178.21 306.327 178.49 306.877C178.77 307.427 179.89 307.877 180.99 307.877C182.09 307.877 184.57 309.457 189.99 314.877L189.65 347.127C189.45 365.747 188.82 382.017 188.15 385.627C187.51 389.067 185.64 394.577 183.99 397.877C182.34 401.177 178.92 406.467 176.39 409.627C173.86 412.787 170.15 416.847 168.14 418.647C166.13 420.447 162.13 423.477 153.99 428.877V442.877L149.24 442.857C145.23 442.837 144.02 443.317 141.49 445.927C139.84 447.627 136.91 449.957 134.99 451.107C133.07 452.257 130.22 454.357 128.67 455.787C126.21 458.057 124.99 458.377 118.94 458.377C112.16 458.377 111.95 458.297 107.76 454.157C105.41 451.837 101.69 448.367 99.49 446.447C96.15 443.527 94.71 442.947 85.99 442.877L86.07 428.377L80.28 424.447C77.09 422.287 72.47 418.437 69.99 415.907C67.52 413.377 63.52 408.397 61.12 404.837C58.71 401.287 55.79 397.657 54.62 396.787C53.45 395.917 51.91 393.887 51.19 392.287C50.19 390.037 49.96 381.407 50.19 354.377C50.48 320.297 50.55 319.267 52.74 315.127C53.98 312.787 56.23 310.107 57.74 309.157C60.27 307.587 65.16 307.467 117.74 307.657Z" fill="#3C2F6A"/>
<path d="M70.24 450.627C74.55 450.067 77.14 448.997 80.58 446.377C84.48 443.397 85.94 442.887 90.33 442.917C94.77 442.947 96.05 443.447 99.49 446.447C101.69 448.367 105.41 451.837 107.76 454.157C111.95 458.297 112.16 458.377 118.94 458.377C124.99 458.377 126.21 458.057 128.67 455.787C130.22 454.357 133.07 452.257 134.99 451.107C136.91 449.957 139.84 447.627 141.49 445.927C144.12 443.217 145.17 442.827 149.99 442.807C153.74 442.797 155.97 443.297 156.99 444.377C157.82 445.247 158.94 445.927 159.49 445.887C160.04 445.847 161.24 446.617 162.15 447.597C163.23 448.757 166.2 449.657 170.65 450.197C174.41 450.637 178.07 451.537 178.78 452.197C179.5 452.847 180.07 454.957 180.05 456.877C180.02 459.647 179.12 461.267 171.49 468.877L155.99 469.847C147.46 470.387 126.99 470.837 110.49 470.847C90.31 470.857 78.56 470.457 74.61 469.617C70.15 468.677 68.14 467.657 66.28 465.377C64.21 462.847 63.88 461.517 64.49 451.377L70.24 450.627Z" fill="#412E7D"/>
</svg>
