<svg width="292" height="646" viewBox="0 0 292 646" fill="none" xmlns="http://www.w3.org/2000/svg">
<path d="M139.881 179.364C145.381 177.964 153.251 176.434 157.381 175.964C161.501 175.494 167.581 175.064 170.881 175.004C174.181 174.944 181.601 175.534 187.381 176.324C193.161 177.114 201.251 178.704 205.381 179.844C209.501 180.994 217.831 184.334 223.881 187.274C229.931 190.204 238.481 195.324 242.881 198.634C247.281 201.944 253.591 207.514 256.901 211.004C260.211 214.494 264.261 219.154 265.901 221.354C267.541 223.544 269.801 226.694 270.911 228.354C272.031 230.004 275.021 235.404 277.551 240.354C280.091 245.304 283.291 252.504 284.661 256.354C286.041 260.204 288.211 268.084 289.491 273.854C291.391 282.484 291.811 287.294 291.811 300.854C291.811 312.324 291.301 319.944 290.121 325.854C289.191 330.524 287.261 337.954 285.841 342.354C284.411 346.754 281.331 354.184 279.011 358.854C276.681 363.524 273.241 369.604 271.361 372.354C269.491 375.104 264.201 382.304 259.621 388.354C254.771 394.764 249.021 403.944 245.861 410.354C242.861 416.404 239.271 425.624 237.881 430.854C236.301 436.764 234.791 446.594 233.891 456.854C232.731 470.124 232.001 474.234 227.881 482.354L193.381 482.854V461.854L198.631 461.834C203.201 461.824 204.311 461.404 207.151 458.584C209.751 456.014 210.421 454.534 210.431 451.354C210.441 449.154 211.091 442.854 211.881 437.354C212.671 431.854 214.781 423.084 216.571 417.854C218.361 412.624 222.021 404.084 224.721 398.854C227.411 393.624 232.121 385.754 235.181 381.354C238.241 376.954 243.131 369.864 246.061 365.604C248.991 361.344 252.891 354.814 254.741 351.104C256.591 347.394 259.051 341.434 260.221 337.854C261.391 334.274 263.251 326.854 264.351 321.354C265.471 315.794 266.361 307.364 266.361 302.354C266.371 297.404 265.721 289.084 264.931 283.854C264.131 278.624 262.331 270.864 260.931 266.604C259.531 262.344 256.971 256.044 255.241 252.604C253.521 249.164 250.421 243.874 248.351 240.854C246.291 237.834 241.061 231.944 236.741 227.784C232.421 223.624 226.631 218.704 223.881 216.844C221.131 214.984 215.731 211.984 211.881 210.164C208.031 208.344 200.381 205.744 194.881 204.374C187.181 202.454 182.241 201.874 173.381 201.854C165.241 201.844 157.941 202.574 148.381 204.354C140.961 205.744 132.411 207.584 129.381 208.454C126.351 209.324 121.631 211.204 118.881 212.644C116.131 214.084 110.781 217.764 107.001 220.814C103.211 223.864 99.2806 227.594 98.2506 229.104C97.2206 230.614 96.3907 232.644 96.4007 233.604C96.4106 234.564 97.3106 236.364 100.381 239.854L97.1106 244.104C95.3106 246.444 92.4207 250.834 90.6707 253.854C88.9307 256.874 86.3507 262.394 84.9407 266.104C83.5307 269.814 82.3907 274.544 82.4107 276.604C82.4373 279.104 81.7606 281.021 80.3806 282.354C78.4606 284.214 78.3206 285.474 78.3506 300.104C78.3706 312.214 78.8306 317.764 80.3506 324.104C81.4306 328.644 83.0106 334.374 83.8506 336.854C84.7006 339.334 85.7606 342.254 86.2106 343.354C86.6506 344.454 88.6707 348.724 90.6907 352.854C92.7107 356.974 97.3707 364.404 101.041 369.354C104.721 374.304 109.131 380.374 110.851 382.854C112.571 385.334 115.611 390.274 117.601 393.854C119.591 397.434 122.771 403.954 124.661 408.354C126.551 412.754 129.061 420.294 130.241 425.104C131.421 429.914 132.381 434.864 132.391 436.104C132.391 437.344 132.841 440.044 133.391 442.104C133.931 444.164 135.501 447.204 136.881 448.854C138.981 451.374 140.101 451.854 148.381 451.854V482.854H133.381C119.101 482.854 118.281 482.744 116.331 480.604C115.201 479.364 113.671 476.104 112.921 473.354C112.171 470.604 111.271 463.184 110.931 456.854C110.581 450.524 109.461 441.524 108.431 436.854C107.411 432.184 105.461 425.434 104.111 421.854C102.761 418.274 100.181 412.434 98.3806 408.854C96.5806 405.274 93.2707 399.654 91.0307 396.354C88.7907 393.054 83.3407 385.554 78.9207 379.684C74.5007 373.814 69.0106 365.484 66.7106 361.184C64.4206 356.874 60.9906 348.854 59.0806 343.354C57.1806 337.854 54.8007 329.524 53.8007 324.854C52.4407 318.544 51.9806 312.104 52.0006 299.854C52.0206 286.884 52.4806 281.214 54.1506 273.354C55.3206 267.854 57.4906 259.974 58.9606 255.854C60.4306 251.724 63.5607 244.524 65.9107 239.854C68.2707 235.174 72.5706 227.974 75.4806 223.854C78.3806 219.724 84.2706 212.864 88.5706 208.604C92.8706 204.344 99.8706 198.514 104.131 195.664C108.391 192.814 115.931 188.544 120.881 186.194C125.831 183.834 134.381 180.764 139.881 179.364Z" fill="url(#paint0_linear_197_99)"/>
<path d="M129.381 208.454C132.411 207.584 140.501 205.784 147.381 204.454C156.201 202.744 163.561 202.014 172.381 201.954C182.551 201.894 186.751 202.344 194.881 204.374C200.381 205.744 208.031 208.344 211.881 210.164C215.731 211.984 221.131 214.984 223.881 216.844C226.631 218.704 232.421 223.624 236.741 227.784C241.061 231.944 246.291 237.824 248.351 240.854C250.421 243.874 253.521 249.164 255.241 252.604C256.971 256.044 259.531 262.344 260.931 266.604C262.331 270.864 264.131 278.624 264.931 283.854C265.721 289.074 266.371 297.404 266.361 302.354C266.361 307.364 265.471 315.794 264.351 321.354C263.251 326.854 261.391 334.274 260.221 337.854C259.051 341.434 256.591 347.394 254.741 351.104C252.891 354.814 248.991 361.344 246.061 365.604C243.131 369.864 238.241 376.954 235.181 381.354C232.121 385.754 227.411 393.624 224.721 398.854C222.021 404.074 218.361 412.624 216.571 417.854C214.781 423.074 212.671 431.854 211.881 437.354C211.091 442.854 210.421 449.154 210.401 451.354C210.361 454.484 209.651 456.064 207.111 458.624C204.311 461.454 203.211 461.884 193.881 461.854L194.141 454.604C194.281 450.614 194.871 440.154 195.431 431.354C196.001 422.554 197.151 409.274 197.991 401.854C198.821 394.434 200.611 381.824 201.971 373.854C203.331 365.874 205.561 354.624 206.931 348.854C208.301 343.074 210.791 333.854 212.471 328.354C214.151 322.854 216.381 316.554 217.441 314.354C218.491 312.154 219.371 309.684 219.401 308.854C219.431 308.024 218.531 306.114 217.411 304.604C215.871 302.514 214.541 301.854 211.881 301.854C209.601 301.854 207.421 302.694 205.631 304.274C203.221 306.394 202.851 307.504 202.631 313.274C202.421 318.844 202.031 320.084 200.131 321.324C198.891 322.124 195.631 323.234 192.881 323.774C190.131 324.314 186.851 324.434 185.581 324.054C184.021 323.574 183.501 322.874 183.961 321.854C184.321 321.024 184.851 318.324 185.131 315.854C185.501 312.574 185.061 310.064 183.511 306.604C182.211 303.704 180.121 301.074 178.131 299.854C176.081 298.604 173.121 297.864 170.131 297.854C166.381 297.854 164.711 298.434 162.211 300.604C160.471 302.114 158.451 304.814 157.711 306.604C156.981 308.394 156.381 311.314 156.371 313.104C156.371 314.894 157.271 318.044 160.381 323.854H155.381C152.631 323.854 147.911 322.954 139.381 319.854V313.854C139.381 308.524 139.051 307.524 136.381 304.854C134.301 302.774 132.381 301.844 130.131 301.824C128.241 301.804 126.211 302.534 125.281 303.574C124.401 304.554 123.391 306.144 123.031 307.104C122.671 308.064 123.101 310.764 123.971 313.104C124.851 315.444 126.451 319.824 127.521 322.854C128.601 325.874 130.791 333.074 132.401 338.854C134.011 344.624 136.261 353.854 137.391 359.354C138.521 364.854 140.311 374.754 141.361 381.354C142.411 387.954 143.941 399.434 144.771 406.854C145.591 414.274 146.531 424.854 146.861 430.354C147.181 435.854 147.661 442.944 148.381 451.854H143.881C140.101 451.854 138.981 451.374 136.881 448.854C135.511 447.204 133.931 444.164 133.391 442.104C132.841 440.044 132.391 437.344 132.391 436.104C132.381 434.864 131.421 429.914 130.241 425.104C129.061 420.294 126.551 412.754 124.661 408.354C122.771 403.954 119.591 397.434 117.601 393.854C115.611 390.274 112.571 385.324 110.851 382.854C109.131 380.374 104.721 374.304 101.041 369.354C97.3707 364.404 92.7107 356.974 90.6907 352.854C88.6707 348.724 86.6506 344.454 86.2106 343.354C85.7606 342.254 84.7006 339.324 83.8506 336.854C83.0106 334.374 81.4306 328.644 80.3506 324.104C78.8306 317.764 78.3706 312.214 78.3506 300.104C78.3206 285.544 78.4706 284.204 82.4007 280.354L84.6406 282.584C86.0706 284.004 88.1406 284.824 90.3806 284.854C92.7706 284.894 94.5607 284.184 96.0307 282.634C97.2107 281.374 100.161 276.074 102.591 270.854C105.011 265.624 108.821 258.654 111.071 255.354C113.311 252.054 118.071 246.654 121.631 243.354C125.201 240.054 130.201 235.554 132.731 233.354C136.671 229.934 137.341 228.804 137.361 225.604C137.371 223.004 136.691 221.194 135.131 219.704C133.361 218.014 132.031 217.654 128.881 218.024C126.631 218.284 122.691 219.974 119.881 221.864C117.131 223.714 111.621 228.404 100.391 239.354L98.3506 237.354C97.2306 236.254 96.3306 234.564 96.3506 233.604C96.3706 232.644 97.2206 230.614 98.2506 229.104C99.2806 227.594 103.211 223.864 107.001 220.814C110.781 217.764 116.131 214.084 118.881 212.644C121.631 211.204 126.351 209.314 129.381 208.454Z" fill="url(#paint1_linear_197_99)"/>
<path d="M117.881 223.354C121.181 221.024 124.551 218.874 125.381 218.564C126.211 218.264 128.341 217.974 130.131 217.934C132.131 217.884 134.151 218.624 135.381 219.854C136.681 221.154 137.371 223.164 137.361 225.604C137.341 228.804 136.671 229.934 132.731 233.354C130.201 235.554 125.201 240.054 121.631 243.354C118.071 246.654 113.311 252.054 111.071 255.354C108.821 258.654 105.011 265.624 102.591 270.854C100.161 276.084 97.2107 281.374 96.0307 282.634C94.5607 284.184 92.7706 284.894 90.3806 284.854C88.1506 284.834 86.0507 284.004 84.6007 282.584C82.9707 280.974 82.3406 279.234 82.3706 276.354C82.3906 274.154 83.8807 268.754 85.6707 264.354C87.4607 259.954 90.9707 253.204 93.4607 249.354C95.9507 245.504 101.111 239.034 104.931 234.974C108.751 230.914 114.581 225.684 117.881 223.354Z" fill="#FBD88D"/>
<path d="M157.711 306.604C158.451 304.814 160.511 302.114 162.301 300.604C164.831 298.464 166.571 297.854 170.211 297.854C173.121 297.864 176.111 298.614 178.131 299.854C180.121 301.074 182.211 303.704 183.511 306.604C185.061 310.064 185.501 312.574 185.131 315.854C184.851 318.334 184.321 321.024 183.961 321.854C183.501 322.874 184.021 323.574 185.581 324.054C186.851 324.434 190.131 324.314 192.881 323.774C195.631 323.234 198.891 322.124 200.131 321.324C202.031 320.084 202.421 318.844 202.631 313.274C202.851 307.504 203.221 306.394 205.631 304.274C207.421 302.694 209.601 301.854 211.881 301.854C214.541 301.854 215.871 302.514 217.411 304.604C218.531 306.114 219.431 308.024 219.401 308.854C219.371 309.684 218.491 312.154 217.451 314.354C216.401 316.554 214.421 321.954 213.051 326.354C211.681 330.754 209.421 338.854 208.021 344.354C206.631 349.854 204.361 360.654 202.971 368.354C201.581 376.054 199.751 387.524 198.911 393.854C198.071 400.184 196.741 413.684 195.941 423.854C195.151 434.024 194.131 451.244 192.881 481.864L182.381 481.854V465.604C182.381 456.664 183.071 440.124 183.901 428.854C184.741 417.584 186.081 402.954 186.881 396.354C187.681 389.754 189.261 378.954 190.381 372.354C191.511 365.754 193.761 354.504 195.391 347.354C197.011 340.204 198.241 334.304 198.111 334.234C197.981 334.174 195.181 334.584 191.881 335.164C186.581 336.084 185.061 335.934 178.881 333.904C172.041 331.654 171.781 331.644 167.381 333.354C164.561 334.444 160.261 335.074 155.881 335.044C152.031 335.024 147.641 334.514 146.131 333.924C144.341 333.234 143.381 333.204 143.381 333.854C143.381 334.404 144.731 340.364 146.371 347.104C148.021 353.844 150.471 365.874 151.821 373.854C153.171 381.834 155.181 396.454 156.301 406.354C157.411 416.254 158.791 433.584 159.351 444.854C159.921 456.124 160.381 469.064 160.381 481.854H148.381L148.371 466.604C148.361 458.214 147.921 444.834 147.381 436.854C146.831 428.874 145.921 417.624 145.341 411.854C144.761 406.084 143.371 395.054 142.251 387.354C141.131 379.654 139.111 367.954 137.771 361.354C136.431 354.754 134.021 344.624 132.411 338.854C130.801 333.084 128.601 325.874 127.521 322.854C126.451 319.834 124.851 315.444 123.971 313.104C123.101 310.764 122.671 308.064 123.031 307.104C123.391 306.144 124.401 304.554 125.281 303.574C126.211 302.534 128.241 301.804 130.131 301.824C132.381 301.844 134.301 302.774 136.381 304.854C139.051 307.524 139.381 308.524 139.381 319.854L144.881 321.854C147.911 322.954 152.631 323.854 160.381 323.854L158.371 320.104C157.271 318.044 156.371 314.894 156.371 313.104C156.381 311.314 156.981 308.394 157.711 306.604Z" fill="white"/>
<path d="M155.881 335.054C160.131 335.084 164.251 334.504 166.381 333.564C168.301 332.714 170.441 331.984 171.131 331.934C171.821 331.894 175.421 332.834 179.131 334.034C185.041 335.954 186.631 336.094 191.881 335.174C195.181 334.594 197.981 334.174 198.111 334.234C198.241 334.304 197.011 340.204 195.391 347.354C193.761 354.504 191.511 365.754 190.381 372.354C189.261 378.954 187.681 389.754 186.881 396.354C186.081 402.954 184.741 417.574 183.901 428.854C183.071 440.124 182.381 453.964 182.381 469.854H171.381C160.641 469.854 160.381 469.804 160.381 467.604C160.381 466.364 159.921 456.124 159.351 444.854C158.791 433.574 157.411 416.254 156.301 406.354C155.181 396.454 153.171 381.824 151.821 373.854C150.471 365.874 148.021 353.844 146.371 347.104C144.731 340.364 143.381 334.404 143.381 333.854C143.381 333.204 144.341 333.234 146.131 333.924C147.641 334.514 152.031 335.024 155.881 335.054Z" fill="url(#paint2_linear_197_99)"/>
<path d="M160.381 482.854V469.854H181.921L181.881 482.354L160.381 482.854Z" fill="url(#paint3_linear_197_99)"/>
<path d="M104.771 490.354C105.811 488.704 108.511 485.664 110.771 483.604C113.031 481.544 114.991 479.854 115.131 479.854C115.271 479.854 116.051 480.524 116.881 481.354C118.181 482.654 125.901 482.824 175.631 482.664C227.901 482.484 233.121 482.614 235.631 484.164C237.141 485.094 239.291 487.314 240.391 489.104C242.311 492.204 242.391 493.724 242.071 522.854C241.781 549.224 241.461 554.434 239.741 561.354C238.641 565.754 236.931 570.934 235.941 572.854C234.941 574.774 232.201 579.054 229.851 582.354C227.491 585.654 223.841 589.974 221.721 591.964C219.611 593.954 215.291 597.434 206.381 603.854V617.854L201.631 617.824C197.801 617.804 196.391 618.304 194.381 620.404C193.001 621.834 190.301 623.944 188.381 625.084C186.451 626.234 183.531 628.454 181.881 630.034C179.171 632.624 178.191 632.914 171.881 632.944C165.381 632.984 164.701 632.784 162.381 630.104C161.001 628.514 158.301 626.274 156.381 625.114C154.451 623.954 151.751 621.834 150.381 620.404C148.371 618.304 146.961 617.804 138.381 617.854L137.881 603.484L132.381 599.654C129.351 597.544 124.921 593.924 122.541 591.594C120.151 589.264 116.361 584.654 114.121 581.354C111.891 578.054 108.331 573.444 102.381 566.854L102.631 530.104C102.861 496.064 103.021 493.134 104.771 490.354Z" fill="#3C2F6A"/>
<path d="M122.961 624.124C128.411 623.534 130.841 622.734 133.461 620.654C136.201 618.484 137.981 617.934 142.381 617.874C147.051 617.814 148.261 618.194 150.381 620.404C151.761 621.834 154.461 623.954 156.381 625.114C158.311 626.274 161.011 628.514 162.381 630.104C164.701 632.784 165.381 632.984 171.881 632.944C178.191 632.914 179.171 632.624 181.881 630.034C183.531 628.454 186.461 626.234 188.381 625.084C190.311 623.944 193.011 621.834 194.381 620.404C196.411 618.294 197.821 617.804 201.881 617.784C205.171 617.774 207.391 618.304 208.381 619.354C209.211 620.224 210.441 620.924 211.131 620.894C211.821 620.874 212.721 621.464 213.131 622.204C213.541 622.944 215.231 624.184 216.881 624.964C219.471 626.174 219.921 626.984 220.171 630.864C220.451 635.094 220.171 635.644 210.311 645.354L170.591 645.304C148.751 645.274 126.431 644.824 121.001 644.304C111.751 643.414 110.961 643.164 108.671 640.354C106.601 637.824 106.271 636.494 106.881 626.354L111.381 625.624C113.851 625.224 119.071 624.554 122.961 624.124Z" fill="#412E7D"/>
<path d="M69.5 183.5L60.5 198L0 102L13.5 81.5L69.5 183.5Z" fill="#D9D9D9"/>
<path d="M109 163L89 170.5L57 39.5L89 30.5L109 163Z" fill="#D9D9D9"/>
<path d="M163.5 151.5H143L136.5 7.5L171.5 0L163.5 151.5Z" fill="#D9D9D9"/>
<defs>
<linearGradient id="paint0_linear_197_99" x1="145.905" y1="0" x2="145.905" y2="645.354" gradientUnits="userSpaceOnUse">
<stop stop-color="#FDC038"/>
<stop offset="1" stop-color="#E98400"/>
</linearGradient>
<linearGradient id="paint1_linear_197_99" x1="145.905" y1="0" x2="145.905" y2="645.354" gradientUnits="userSpaceOnUse">
<stop stop-color="#FECA3D"/>
<stop offset="1" stop-color="#C3A322"/>
</linearGradient>
<linearGradient id="paint2_linear_197_99" x1="145.905" y1="0" x2="145.905" y2="645.354" gradientUnits="userSpaceOnUse">
<stop stop-color="#FECA3D"/>
<stop offset="1" stop-color="#C3A322"/>
</linearGradient>
<linearGradient id="paint3_linear_197_99" x1="145.905" y1="0" x2="145.905" y2="645.354" gradientUnits="userSpaceOnUse">
<stop stop-color="#FDC038"/>
<stop offset="1" stop-color="#E98400"/>
</linearGradient>
</defs>
</svg>
