<svg width="359" height="250" viewBox="0 0 359 250" fill="none" xmlns="http://www.w3.org/2000/svg">
<path d="M224.44 84.1645C225.846 82.6712 227.95 80.6787 229.118 79.7347C230.284 78.7926 232.055 77.4827 233.05 76.8247C234.045 76.1666 236.423 74.9081 238.339 74.0285C240.255 73.1489 243.031 72.0655 244.512 71.6125C245.991 71.1646 249.18 70.5684 251.595 70.2923C254.009 70.0131 257.609 69.9173 259.593 70.0739C261.577 70.2305 264.581 70.7062 266.268 71.129C267.954 71.5518 270.093 72.1881 271.019 72.5412C271.944 72.8912 273.244 73.4139 273.905 73.7051C274.566 73.9912 276.525 75.0587 278.256 76.0781C279.991 77.0955 282.363 78.6713 283.527 79.5801C284.694 80.4869 286.884 82.4698 288.393 83.9816C290.645 86.2456 291.706 87.6313 294.335 91.7674C296.559 95.2661 297.88 97.6892 298.666 99.7207C299.288 101.325 300.14 103.966 300.559 105.583C300.976 107.203 301.477 110.066 301.675 111.94C301.87 113.816 301.999 116.338 301.959 117.541C301.921 118.743 301.704 121.964 301.48 124.698C301.243 127.593 301.269 131.508 301.548 134.076C301.805 136.503 302.498 140.011 303.088 141.876C303.752 143.985 305.197 147.276 306.911 150.58C309.13 154.852 309.704 156.248 310.022 159.523L299.595 166.364L295.524 159.959L297.122 158.935C298.514 158.046 298.771 157.702 299.09 156.292C299.385 155.004 299.303 154.422 298.689 153.45C298.266 152.777 297.243 150.73 296.417 148.899C295.592 147.068 294.535 143.984 294.067 142.042C293.599 140.099 293.06 136.785 292.87 134.666C292.676 132.55 292.587 129.236 292.668 127.301C292.748 125.365 292.865 122.255 292.933 120.387C293.001 118.52 292.924 115.772 292.77 114.282C292.615 112.791 292.209 110.496 291.872 109.178C291.535 107.859 290.664 105.235 289.933 103.344C289.197 101.431 287.834 98.6871 286.863 97.1589C285.906 95.6471 284.095 93.2353 282.84 91.7932C281.582 90.353 279.529 88.335 278.276 87.307C277.023 86.279 275.021 84.8537 273.826 84.1398C272.635 83.424 270.663 82.4114 269.447 81.8915C268.233 81.3697 265.496 80.5871 263.371 80.1557C261.247 79.7243 258.527 79.3461 257.328 79.3119C256.128 79.2777 253.9 79.4095 252.373 79.6007C250.845 79.792 248.008 80.482 246.065 81.1304C243.344 82.0375 241.724 82.8183 239.018 84.5299C236.533 86.1049 234.448 87.7428 231.877 90.1391C229.883 92.0016 227.632 94.2204 226.877 95.0732C226.121 95.926 225.046 97.4145 224.486 98.3868C223.927 99.3592 223.008 101.519 222.446 103.182C221.882 104.847 221.406 106.747 221.385 107.407C221.363 108.067 221.504 108.847 221.693 109.138C221.882 109.429 222.505 109.804 224.118 110.273L223.945 112.203C223.849 113.266 223.819 115.165 223.871 116.426C223.925 117.684 224.209 119.868 224.498 121.273C224.787 122.678 225.356 124.342 225.762 124.966C226.255 125.724 226.42 126.44 226.257 127.114C226.032 128.053 226.234 128.465 229.079 132.922C231.433 136.612 232.649 138.215 234.342 139.854C235.552 141.03 237.144 142.471 237.881 143.065C238.622 143.657 239.511 144.342 239.861 144.59C240.209 144.84 241.653 145.751 243.07 146.619C244.485 147.484 247.346 148.847 249.426 149.646C251.508 150.442 254.03 151.439 255.035 151.862C256.04 152.285 257.925 153.202 259.226 153.908C260.528 154.614 262.762 155.987 264.191 156.962C265.621 157.938 267.848 159.751 269.14 160.99C270.433 162.228 271.685 163.552 271.929 163.928C272.169 164.306 272.83 165.043 273.397 165.564C273.961 166.088 275.029 166.711 275.77 166.947C276.899 167.308 277.334 167.238 279.859 165.632L285.869 175.088L281.294 177.996C276.938 180.765 276.667 180.89 275.657 180.615C275.072 180.456 273.973 179.758 273.211 179.065C272.45 178.371 270.737 176.283 269.406 174.418C268.072 172.555 265.985 170.027 264.766 168.802C263.549 167.575 261.646 165.894 260.54 165.064C259.434 164.234 257.515 162.953 256.272 162.21C255.029 161.467 252.93 160.394 251.607 159.822C250.284 159.25 247.167 158.018 244.681 157.085C242.195 156.151 238.905 154.675 237.37 153.809C235.836 152.938 233.235 151.157 231.586 149.85C229.94 148.54 227.6 146.461 226.389 145.23C224.751 143.569 223.362 141.694 220.993 137.954C218.485 133.994 217.526 132.175 216.512 129.454C215.802 127.549 214.937 124.725 214.586 123.183C214.234 121.639 213.793 118.836 213.604 116.956C213.417 115.071 213.333 112.041 213.421 110.22C213.505 108.398 213.972 105.164 214.458 103.031C214.943 100.898 215.948 97.7623 216.695 96.0671C217.442 94.3719 218.914 91.6077 219.968 89.9312C221.021 88.2517 223.034 85.6578 224.44 84.1645Z" fill="url(#paint0_linear_199_102)"/>
<path d="M226.877 95.0732C227.632 94.2204 229.751 92.103 231.592 90.3635C233.95 88.132 236.054 86.4825 238.732 84.7542C241.823 82.7643 243.191 82.0873 246.065 81.1304C248.008 80.482 250.845 79.792 252.373 79.6007C253.9 79.4095 256.128 79.2777 257.328 79.3119C258.527 79.3461 261.247 79.7243 263.371 80.1557C265.496 80.5871 268.231 81.3667 269.447 81.8915C270.663 82.4114 272.635 83.424 273.826 84.1398C275.021 84.8537 277.023 86.279 278.276 87.307C279.529 88.335 281.582 90.353 282.84 91.7932C284.093 93.2323 285.906 95.6471 286.863 97.1589C287.834 98.6871 289.197 101.431 289.933 103.344C290.664 105.235 291.535 107.859 291.872 109.178C292.209 110.496 292.615 112.791 292.77 114.282C292.924 115.772 293.001 118.52 292.933 120.387C292.865 122.255 292.748 125.365 292.668 127.301C292.587 129.236 292.676 132.55 292.87 134.666C293.058 136.782 293.599 140.099 294.067 142.042C294.533 143.981 295.592 147.068 296.417 148.899C297.243 150.73 298.26 152.781 298.68 153.456C299.275 154.419 299.364 155.038 299.086 156.312C298.78 157.718 298.528 158.062 295.677 159.862L294.35 157.6C293.62 156.356 291.772 153.051 290.236 150.258C288.704 147.463 286.481 143.19 285.298 140.763C284.113 138.339 282.214 134.146 281.084 131.451C279.952 128.753 278.451 124.89 277.75 122.864C277.048 120.835 276.02 117.54 275.466 115.537C274.912 113.534 274.371 111.18 274.268 110.303C274.161 109.429 273.951 108.505 273.799 108.246C273.647 107.987 273.003 107.578 272.368 107.335C271.493 106.996 270.96 107.053 270.148 107.568C269.453 108.01 268.951 108.689 268.711 109.518C268.387 110.632 268.489 111.042 269.541 112.845C270.557 114.585 270.678 115.038 270.339 115.785C270.116 116.269 269.337 117.24 268.602 117.938C267.868 118.636 266.891 119.308 266.43 119.439C265.861 119.595 265.567 119.482 265.509 119.082C265.458 118.759 265.096 117.832 264.703 117.025C264.18 115.952 263.559 115.272 262.416 114.517C261.457 113.885 260.309 113.488 259.466 113.501C258.598 113.517 257.552 113.866 256.638 114.442C255.494 115.169 255.097 115.67 254.755 116.816C254.517 117.614 254.425 118.83 254.546 119.519C254.67 120.206 255.053 121.213 255.397 121.761C255.744 122.307 256.63 123.094 258.705 124.263L257.18 125.232C256.341 125.765 254.727 126.406 251.524 127.114L250.36 125.284C249.327 123.658 249.033 123.417 247.701 123.12C246.663 122.889 245.897 122.978 245.207 123.408C244.626 123.768 244.149 124.384 244.067 124.882C243.988 125.351 243.988 126.032 244.065 126.395C244.141 126.757 244.796 127.498 245.515 128.043C246.237 128.586 247.574 129.612 248.488 130.328C249.403 131.04 251.466 132.812 253.078 134.263C254.688 135.711 257.164 138.09 258.574 139.548C259.985 141.007 262.451 143.68 264.05 145.489C265.65 147.299 268.343 150.504 270.034 152.606C271.723 154.71 274.061 157.755 275.228 159.369C276.391 160.985 277.912 163.054 279.859 165.632L278.487 166.505C277.334 167.238 276.899 167.308 275.77 166.947C275.032 166.709 273.961 166.088 273.397 165.564C272.83 165.043 272.169 164.306 271.929 163.928C271.685 163.552 270.433 162.228 269.14 160.99C267.848 159.751 265.621 157.938 264.191 156.962C262.762 155.987 260.528 154.614 259.226 153.908C257.925 153.202 256.039 152.282 255.035 151.862C254.03 151.439 251.508 150.442 249.426 149.646C247.346 148.847 244.485 147.484 243.07 146.619C241.653 145.751 240.209 144.84 239.861 144.59C239.511 144.342 238.62 143.654 237.881 143.065C237.144 142.471 235.552 141.03 234.342 139.854C232.649 138.215 231.433 136.612 229.079 132.922C226.247 128.486 226.033 128.048 226.486 126.112L227.601 126.358C228.313 126.514 229.103 126.363 229.792 125.938C230.529 125.487 230.937 124.923 231.085 124.165C231.201 123.552 231.073 121.364 230.802 119.3C230.527 117.236 230.337 114.371 230.384 112.929C230.427 111.488 230.833 108.918 231.279 107.221C231.728 105.522 232.381 103.18 232.726 102.019C233.264 100.212 233.25 99.7372 232.636 98.7573C232.135 97.9623 231.576 97.542 230.811 97.39C229.944 97.2176 229.468 97.3657 228.579 98.0892C227.944 98.6047 227.069 99.884 226.579 101.005C226.098 102.103 225.327 104.601 224.024 110.119L223.014 109.904C222.46 109.786 221.857 109.445 221.677 109.148C221.497 108.851 221.363 108.067 221.385 107.407C221.406 106.747 221.882 104.847 222.446 103.182C223.008 101.519 223.927 99.3592 224.486 98.3868C225.046 97.4145 226.119 95.9229 226.877 95.0732Z" fill="url(#paint1_linear_199_102)"/>
<path d="M226.257 101.848C226.812 100.497 227.423 99.1879 227.617 98.9324C227.812 98.68 228.405 98.1786 228.943 97.8194C229.544 97.4164 230.303 97.2505 230.917 97.3872C231.565 97.5318 232.166 98.0111 232.636 98.7573C233.25 99.7372 233.264 100.212 232.726 102.019C232.381 103.18 231.728 105.522 231.279 107.221C230.833 108.918 230.427 111.488 230.384 112.929C230.337 114.371 230.527 117.236 230.802 119.3C231.075 121.367 231.201 123.552 231.085 124.165C230.937 124.923 230.529 125.487 229.792 125.938C229.108 126.364 228.307 126.518 227.589 126.366C226.78 126.191 226.25 125.782 225.701 124.898C225.281 124.223 224.688 122.287 224.381 120.598C224.074 118.909 223.836 116.169 223.849 114.512C223.862 112.855 224.182 109.881 224.56 107.902C224.938 105.923 225.703 103.198 226.257 101.848Z" fill="#FBD88D"/>
<path d="M254.546 119.519C254.425 118.83 254.53 117.607 254.783 116.799C255.14 115.656 255.552 115.132 256.662 114.427C257.552 113.866 258.609 113.515 259.466 113.501C260.309 113.488 261.457 113.885 262.416 114.517C263.559 115.272 264.18 115.952 264.703 117.025C265.098 117.835 265.458 118.759 265.509 119.082C265.567 119.482 265.861 119.595 266.43 119.439C266.891 119.308 267.868 118.636 268.602 117.938C269.337 117.24 270.116 116.269 270.339 115.785C270.678 115.038 270.557 114.585 269.541 112.845C268.489 111.042 268.387 110.632 268.711 109.518C268.951 108.689 269.453 108.01 270.148 107.568C270.96 107.053 271.493 106.996 272.368 107.335C273.003 107.578 273.647 107.987 273.799 108.246C273.951 108.505 274.161 109.429 274.271 110.301C274.377 111.176 274.82 113.207 275.255 114.815C275.69 116.422 276.571 119.331 277.21 121.28C277.853 123.227 279.254 126.962 280.323 129.58C281.391 132.198 283.057 136.051 284.028 138.145C284.999 140.239 287.21 144.614 288.938 147.871C290.669 151.127 293.696 156.577 299.251 166.159L296.046 168.192L292.896 163.235C291.163 160.508 288.167 155.329 286.235 151.731C284.306 148.13 281.879 143.408 280.843 141.24C279.808 139.071 278.196 135.471 277.258 133.241C276.323 131.008 274.828 127.141 273.939 124.644C273.047 122.149 272.279 120.111 272.226 120.115C272.174 120.121 271.4 120.789 270.506 121.606C269.067 122.914 268.575 123.163 266.296 123.742C263.773 124.382 263.692 124.429 262.682 125.804C262.033 126.683 260.843 127.709 259.501 128.549C258.323 129.289 256.885 129.984 256.31 130.097C255.631 130.234 255.332 130.411 255.458 130.609C255.565 130.777 257.132 132.333 258.939 134.071C260.749 135.807 263.828 139.001 265.787 141.174C267.746 143.346 271.193 147.416 273.454 150.218C275.712 153.023 279.493 158.041 281.848 161.37C284.207 164.698 286.856 168.555 289.336 172.457L285.675 174.783L282.716 170.133C281.086 167.576 278.358 163.58 276.646 161.251C274.932 158.923 272.473 155.668 271.177 154.021C269.882 152.373 267.32 149.278 265.485 147.147C263.651 145.015 260.766 141.838 259.078 140.085C257.39 138.331 254.691 135.709 253.081 134.261C251.471 132.813 249.403 131.04 248.488 130.328C247.576 129.615 246.237 128.586 245.515 128.043C244.796 127.498 244.141 126.757 244.065 126.395C243.988 126.032 243.988 125.351 244.067 124.882C244.149 124.384 244.626 123.768 245.207 123.408C245.897 122.978 246.663 122.889 247.701 123.12C249.033 123.417 249.327 123.658 251.524 127.114L253.589 126.658C254.727 126.406 256.341 125.765 258.705 124.263L257.365 123.509C256.63 123.094 255.744 122.307 255.397 121.761C255.053 121.213 254.67 120.206 254.546 119.519Z" fill="white"/>
<path d="M259.503 128.552C260.806 127.737 261.95 126.761 262.417 126.062C262.838 125.43 263.349 124.793 263.55 124.644C263.753 124.498 265.033 124.086 266.397 123.733C268.572 123.173 269.084 122.907 270.507 121.609C271.402 120.792 272.174 120.121 272.226 120.115C272.279 120.111 273.047 122.149 273.939 124.644C274.828 127.141 276.323 131.008 277.258 133.241C278.196 135.471 279.808 139.071 280.843 141.24C281.879 143.408 284.304 148.127 286.235 151.731C288.167 155.329 290.639 159.684 293.72 164.531L290.365 166.664C287.089 168.746 287 168.781 286.573 168.11C286.333 167.732 284.207 164.698 281.848 161.37C279.491 158.038 275.712 153.023 273.454 150.218C271.193 147.416 267.744 143.343 265.787 141.174C263.828 139.001 260.749 135.807 258.939 134.071C257.132 132.333 255.565 130.777 255.458 130.609C255.332 130.411 255.631 130.234 256.31 130.097C256.885 129.984 258.323 129.289 259.503 128.552Z" fill="url(#paint2_linear_199_102)"/>
<path d="M289.53 172.762L287.009 168.796L293.58 164.62L295.991 168.441L289.53 172.762Z" fill="url(#paint3_linear_199_102)"/>
<path d="M274.021 185.83C274.019 185.125 274.253 183.675 274.543 182.608C274.833 181.542 275.103 180.646 275.146 180.619C275.188 180.592 275.556 180.645 275.97 180.737C276.619 180.882 279.007 179.437 294.144 169.747C310.053 159.559 311.67 158.587 312.737 158.573C313.377 158.564 314.464 158.824 315.146 159.157C316.333 159.73 316.652 160.178 322.202 169.126C327.225 177.225 328.138 178.876 328.955 181.321C329.472 182.876 329.955 184.788 330.025 185.565C330.092 186.345 330.086 188.181 330.009 189.644C329.929 191.108 329.653 193.133 329.393 194.151C329.135 195.167 328.492 197.066 327.019 200.752L329.733 205.022L328.278 205.934C327.106 206.67 326.773 207.096 326.567 208.126C326.423 208.83 326.009 209.997 325.644 210.717C325.278 211.442 324.818 212.685 324.621 213.487C324.297 214.802 324.054 215.081 322.135 216.313C320.16 217.585 319.914 217.656 318.687 217.289C317.957 217.071 316.7 216.911 315.889 216.93C315.075 216.95 313.841 216.827 313.146 216.656C312.126 216.405 311.599 216.526 308.991 218.205L306.053 213.919L303.633 213.817C302.299 213.761 300.246 213.515 299.069 213.266C297.888 213.019 295.838 212.347 294.515 211.775C293.195 211.201 291.216 210.485 288.123 209.628L281.075 198.37C274.546 187.942 274.026 187.018 274.021 185.83Z" fill="#3C2F6A"/>
<path d="M203.774 99.0705L203.84 105.238L166.774 87.6849L166.918 78.8147L203.774 99.0705Z" fill="#D9D9D9"/>
<path d="M211.848 85.1597L207.201 91.3248L172.044 57.5705L180.06 48.6215L211.848 85.1597Z" fill="#D9D9D9"/>
<path d="M226.242 71.0862L219.989 75.0605L190.09 32.3973L199.311 23.3242L226.242 71.0862Z" fill="#D9D9D9"/>
<path d="M37.73 130.18C37.3267 132.453 36.3917 134.378 34.925 135.955C33.4583 137.495 31.6983 138.522 29.645 139.035C31.5517 139.512 33 140.428 33.99 141.785C35.0167 143.105 35.53 144.663 35.53 146.46C35.53 147.047 35.475 147.67 35.365 148.33C34.7783 151.74 33.1833 154.38 30.58 156.25C28.0133 158.083 24.6217 159 20.405 159H0L6.875 120.06H26.73C30.25 120.06 32.9817 120.757 34.925 122.15C36.905 123.507 37.895 125.505 37.895 128.145C37.895 128.768 37.84 129.447 37.73 130.18ZM24.86 132.545C24.8967 132.362 24.915 132.123 24.915 131.83C24.915 131.097 24.6767 130.565 24.2 130.235C23.76 129.905 23.0633 129.74 22.11 129.74H17.38L16.39 135.24H21.12C22.22 135.24 23.0817 135.02 23.705 134.58C24.3283 134.14 24.7133 133.462 24.86 132.545ZM23.21 146.515C23.2467 146.332 23.265 146.093 23.265 145.8C23.265 144.407 22.33 143.71 20.46 143.71H14.905L13.97 149.21H19.525C20.625 149.21 21.4683 149.008 22.055 148.605C22.6783 148.165 23.0633 147.468 23.21 146.515ZM52.2827 159.385C49.5327 159.385 47.1127 158.853 45.0227 157.79C42.9327 156.727 41.301 155.223 40.1277 153.28C38.9543 151.3 38.3677 149.008 38.3677 146.405C38.3677 142.812 39.211 139.585 40.8977 136.725C42.621 133.865 44.9677 131.628 47.9377 130.015C50.9077 128.402 54.226 127.595 57.8927 127.595C60.6427 127.595 63.0627 128.145 65.1527 129.245C67.2427 130.308 68.8743 131.83 70.0477 133.81C71.221 135.753 71.8077 138.027 71.8077 140.63C71.8077 144.223 70.9643 147.45 69.2777 150.31C67.591 153.17 65.2627 155.407 62.2927 157.02C59.3227 158.597 55.986 159.385 52.2827 159.385ZM54.1527 148.825C55.7293 148.825 56.976 148.11 57.8927 146.68C58.8093 145.25 59.2677 143.655 59.2677 141.895C59.2677 140.648 58.956 139.713 58.3327 139.09C57.746 138.467 56.976 138.155 56.0227 138.155C54.446 138.155 53.1993 138.87 52.2827 140.3C51.366 141.73 50.9077 143.325 50.9077 145.085C50.9077 146.332 51.201 147.267 51.7877 147.89C52.3743 148.513 53.1627 148.825 54.1527 148.825ZM89.5035 132.215C90.5301 130.785 91.8318 129.667 93.4085 128.86C95.0218 128.017 96.8368 127.595 98.8535 127.595C101.97 127.595 104.482 128.64 106.388 130.73C108.295 132.82 109.248 135.717 109.248 139.42C109.248 140.813 109.12 142.17 108.863 143.49C108.277 146.753 107.213 149.595 105.673 152.015C104.133 154.398 102.282 156.232 100.118 157.515C97.9551 158.762 95.6635 159.385 93.2435 159.385C91.2268 159.385 89.5585 158.982 88.2385 158.175C86.9551 157.332 86.0568 156.195 85.5435 154.765L84.7735 159H72.5635L79.7685 118.3H91.9785L89.5035 132.215ZM96.4885 143.49C96.5618 143.16 96.5985 142.72 96.5985 142.17C96.5985 140.923 96.2685 139.97 95.6085 139.31C94.9485 138.613 94.0501 138.265 92.9135 138.265C91.5935 138.265 90.4201 138.723 89.3935 139.64C88.4035 140.557 87.7618 141.84 87.4685 143.49C87.3951 143.82 87.3585 144.26 87.3585 144.81C87.3585 146.057 87.6885 147.028 88.3485 147.725C89.0085 148.385 89.9068 148.715 91.0435 148.715C92.3635 148.715 93.5185 148.257 94.5085 147.34C95.5351 146.423 96.1951 145.14 96.4885 143.49ZM122.046 125.505C120.14 125.505 118.636 125.047 117.536 124.13C116.473 123.213 115.941 122.022 115.941 120.555C115.941 119.272 116.29 118.08 116.986 116.98C117.683 115.88 118.655 115.018 119.901 114.395C121.185 113.735 122.596 113.405 124.136 113.405C126.006 113.405 127.473 113.882 128.536 114.835C129.636 115.752 130.186 116.962 130.186 118.465C130.186 119.748 129.838 120.922 129.141 121.985C128.445 123.048 127.473 123.91 126.226 124.57C124.98 125.193 123.586 125.505 122.046 125.505ZM127.656 127.98L122.156 159H109.946L115.446 127.98H127.656ZM154.896 127.76C157.903 127.76 160.213 128.64 161.826 130.4C163.439 132.123 164.246 134.507 164.246 137.55C164.246 138.65 164.136 139.805 163.916 141.015L160.726 159H148.571L151.486 142.555C151.559 141.968 151.596 141.565 151.596 141.345C151.596 140.208 151.266 139.328 150.606 138.705C149.983 138.082 149.103 137.77 147.966 137.77C146.646 137.77 145.528 138.192 144.611 139.035C143.694 139.878 143.089 141.033 142.796 142.5L139.881 159H127.671L133.171 127.98H145.381L144.556 132.655C145.766 131.188 147.251 130.015 149.011 129.135C150.771 128.218 152.733 127.76 154.896 127.76ZM167.121 143.49C167.707 140.227 168.771 137.403 170.311 135.02C171.851 132.6 173.702 130.767 175.866 129.52C178.029 128.237 180.321 127.595 182.741 127.595C184.757 127.595 186.426 128.017 187.746 128.86C189.066 129.667 189.982 130.785 190.496 132.215L191.266 127.98H203.421L197.921 159H185.766L186.536 154.765C185.509 156.195 184.189 157.332 182.576 158.175C180.962 158.982 179.147 159.385 177.131 159.385C174.014 159.385 171.502 158.34 169.596 156.25C167.689 154.16 166.736 151.263 166.736 147.56C166.736 146.167 166.864 144.81 167.121 143.49ZM188.516 143.49C188.589 143.16 188.626 142.72 188.626 142.17C188.626 140.923 188.296 139.97 187.636 139.31C186.976 138.613 186.077 138.265 184.941 138.265C183.621 138.265 182.447 138.723 181.421 139.64C180.431 140.557 179.789 141.84 179.496 143.49C179.422 143.82 179.386 144.26 179.386 144.81C179.386 146.057 179.716 147.028 180.376 147.725C181.036 148.385 181.934 148.715 183.071 148.715C184.391 148.715 185.546 148.257 186.536 147.34C187.562 146.423 188.222 145.14 188.516 143.49ZM1.1 188.49C1.68667 185.227 2.75 182.403 4.29 180.02C5.83 177.6 7.68167 175.767 9.845 174.52C12.0083 173.237 14.3 172.595 16.72 172.595C18.7367 172.595 20.3867 173.017 21.67 173.86C22.99 174.667 23.9067 175.785 24.42 177.215L26.895 163.3H39.105L31.9 204H19.69L20.46 199.765C19.4333 201.195 18.1133 202.332 16.5 203.175C14.9233 203.982 13.1267 204.385 11.11 204.385C7.99333 204.385 5.48167 203.34 3.575 201.25C1.66833 199.16 0.715 196.263 0.715 192.56C0.715 191.167 0.843333 189.81 1.1 188.49ZM22.495 188.49C22.5683 188.16 22.605 187.72 22.605 187.17C22.605 185.923 22.275 184.97 21.615 184.31C20.955 183.613 20.0567 183.265 18.92 183.265C17.6 183.265 16.4267 183.723 15.4 184.64C14.41 185.557 13.7683 186.84 13.475 188.49C13.4017 188.82 13.365 189.26 13.365 189.81C13.365 191.057 13.695 192.028 14.355 192.725C15.015 193.385 15.9133 193.715 17.05 193.715C18.37 193.715 19.525 193.257 20.515 192.34C21.5417 191.423 22.2017 190.14 22.495 188.49ZM57.1278 172.595C61.2345 172.595 64.4978 173.695 66.9178 175.895C69.3378 178.058 70.5478 181.028 70.5478 184.805C70.5478 185.868 70.4378 187.005 70.2178 188.215C69.9611 189.425 69.7595 190.232 69.6128 190.635H50.0328C49.9961 190.855 49.9778 191.167 49.9778 191.57C49.9778 193.623 50.8578 194.65 52.6178 194.65C53.9745 194.65 55.0378 194.045 55.8078 192.835H68.7328C67.9261 195.035 66.6611 197.015 64.9378 198.775C63.2145 200.498 61.1795 201.873 58.8328 202.9C56.5228 203.89 54.0845 204.385 51.5178 204.385C47.4111 204.385 44.1478 203.303 41.7278 201.14C39.3445 198.94 38.1528 195.897 38.1528 192.01C38.1528 190.873 38.2628 189.7 38.4828 188.49C39.0695 185.263 40.2428 182.458 42.0028 180.075C43.7628 177.655 45.9445 175.803 48.5478 174.52C51.1878 173.237 54.0478 172.595 57.1278 172.595ZM58.2828 185.63C58.3195 185.447 58.3378 185.172 58.3378 184.805C58.3378 183.925 58.0628 183.265 57.5128 182.825C56.9628 182.385 56.2661 182.165 55.4228 182.165C53.2228 182.165 51.7378 183.32 50.9678 185.63H58.2828ZM118.075 165.06L116.37 174.74H106.03L100.86 204H88.6501L93.8201 174.74H83.5901L85.2951 165.06H118.075ZM134.257 172.595C138.363 172.595 141.627 173.695 144.047 175.895C146.467 178.058 147.677 181.028 147.677 184.805C147.677 185.868 147.567 187.005 147.347 188.215C147.09 189.425 146.888 190.232 146.742 190.635H127.162C127.125 190.855 127.107 191.167 127.107 191.57C127.107 193.623 127.987 194.65 129.747 194.65C131.103 194.65 132.167 194.045 132.937 192.835H145.862C145.055 195.035 143.79 197.015 142.067 198.775C140.343 200.498 138.308 201.873 135.962 202.9C133.652 203.89 131.213 204.385 128.647 204.385C124.54 204.385 121.277 203.303 118.857 201.14C116.473 198.94 115.282 195.897 115.282 192.01C115.282 190.873 115.392 189.7 115.612 188.49C116.198 185.263 117.372 182.458 119.132 180.075C120.892 177.655 123.073 175.803 125.677 174.52C128.317 173.237 131.177 172.595 134.257 172.595ZM135.412 185.63C135.448 185.447 135.467 185.172 135.467 184.805C135.467 183.925 135.192 183.265 134.642 182.825C134.092 182.385 133.395 182.165 132.552 182.165C130.352 182.165 128.867 183.32 128.097 185.63H135.412ZM162.593 204.385C159.88 204.385 157.46 203.982 155.333 203.175C153.243 202.368 151.593 201.25 150.383 199.82C149.21 198.353 148.623 196.685 148.623 194.815C148.623 194.118 148.66 193.605 148.733 193.275H160.448C160.412 194.192 160.668 194.87 161.218 195.31C161.805 195.75 162.593 195.97 163.583 195.97C164.207 195.97 164.738 195.823 165.178 195.53C165.655 195.237 165.893 194.888 165.893 194.485C165.893 193.898 165.527 193.44 164.793 193.11C164.06 192.743 162.85 192.34 161.163 191.9C159.037 191.313 157.258 190.708 155.828 190.085C154.435 189.462 153.207 188.545 152.143 187.335C151.117 186.088 150.603 184.475 150.603 182.495C150.603 180.662 151.153 178.993 152.253 177.49C153.39 175.95 154.967 174.758 156.983 173.915C159.037 173.035 161.402 172.595 164.078 172.595C167.012 172.595 169.523 173.09 171.613 174.08C173.74 175.07 175.335 176.408 176.398 178.095C177.462 179.782 177.957 181.652 177.883 183.705H167.048C167.048 182.862 166.792 182.22 166.278 181.78C165.765 181.303 165.013 181.065 164.023 181.065C163.4 181.065 162.868 181.193 162.428 181.45C162.025 181.707 161.823 182.055 161.823 182.495C161.823 183.045 162.19 183.503 162.923 183.87C163.657 184.2 164.903 184.64 166.663 185.19C168.827 185.813 170.605 186.437 171.998 187.06C173.428 187.647 174.675 188.545 175.738 189.755C176.802 190.928 177.333 192.432 177.333 194.265C177.333 197.455 175.958 199.948 173.208 201.745C170.495 203.505 166.957 204.385 162.593 204.385ZM199.669 163.3L192.464 204H180.254L187.459 163.3H199.669ZM199.079 188.49C199.665 185.227 200.729 182.403 202.269 180.02C203.809 177.6 205.66 175.767 207.824 174.52C209.987 173.237 212.279 172.595 214.699 172.595C216.715 172.595 218.384 173.017 219.704 173.86C221.024 174.667 221.94 175.785 222.454 177.215L223.224 172.98H235.379L229.879 204H217.724L218.494 199.765C217.467 201.195 216.147 202.332 214.534 203.175C212.92 203.982 211.105 204.385 209.089 204.385C205.972 204.385 203.46 203.34 201.554 201.25C199.647 199.16 198.694 196.263 198.694 192.56C198.694 191.167 198.822 189.81 199.079 188.49ZM220.474 188.49C220.547 188.16 220.584 187.72 220.584 187.17C220.584 185.923 220.254 184.97 219.594 184.31C218.934 183.613 218.035 183.265 216.899 183.265C215.579 183.265 214.405 183.723 213.379 184.64C212.389 185.557 211.747 186.84 211.454 188.49C211.38 188.82 211.344 189.26 211.344 189.81C211.344 191.057 211.674 192.028 212.334 192.725C212.994 193.385 213.892 193.715 215.029 193.715C216.349 193.715 217.504 193.257 218.494 192.34C219.52 191.423 220.18 190.14 220.474 188.49Z" fill="white"/>
<defs>
<linearGradient id="paint0_linear_199_102" x1="191.505" y1="28.2862" x2="314.213" y2="221.35" gradientUnits="userSpaceOnUse">
<stop stop-color="#FDC038"/>
<stop offset="1" stop-color="#E98400"/>
</linearGradient>
<linearGradient id="paint1_linear_199_102" x1="191.505" y1="28.2862" x2="314.213" y2="221.35" gradientUnits="userSpaceOnUse">
<stop stop-color="#FECA3D"/>
<stop offset="1" stop-color="#C3A322"/>
</linearGradient>
<linearGradient id="paint2_linear_199_102" x1="191.505" y1="28.2862" x2="314.213" y2="221.35" gradientUnits="userSpaceOnUse">
<stop stop-color="#FECA3D"/>
<stop offset="1" stop-color="#C3A322"/>
</linearGradient>
<linearGradient id="paint3_linear_199_102" x1="191.505" y1="28.2862" x2="314.213" y2="221.35" gradientUnits="userSpaceOnUse">
<stop stop-color="#FDC038"/>
<stop offset="1" stop-color="#E98400"/>
</linearGradient>
</defs>
</svg>
